<svg xmlns="http://www.w3.org/2000/svg" xmlns:xlink="http://www.w3.org/1999/xlink" width="1500" zoomAndPan="magnify" viewBox="0 0 1125 374.999991" height="500" preserveAspectRatio="xMidYMid meet" version="1.0"><defs><g/><clipPath id="89b2491453"><path d="M 1026.25 103.328125 L 1058 103.328125 L 1058 142.328125 L 1026.25 142.328125 Z M 1026.25 103.328125 " clip-rule="nonzero"/></clipPath><clipPath id="eee8c5bd04"><path d="M 1062 103.328125 L 1104.25 103.328125 L 1104.25 142.328125 L 1062 142.328125 Z M 1062 103.328125 " clip-rule="nonzero"/></clipPath></defs><g fill="#df1f1f" fill-opacity="1"><g transform="translate(0.0000135, 267.331621)"><g><path d="M 48.984375 -98.5 L 88.59375 -98.5 C 96.300781 -98.5 102.207031 -100.078125 106.3125 -103.234375 C 110.425781 -106.390625 112.484375 -110.832031 112.484375 -116.5625 C 112.484375 -122.28125 110.59375 -126.601562 106.8125 -129.53125 C 103.03125 -132.46875 96.664062 -133.9375 87.71875 -133.9375 L 48.984375 -133.9375 Z M 48.984375 -27.953125 L 90.359375 -27.953125 C 98.648438 -27.953125 105.050781 -29.820312 109.5625 -33.5625 C 114.070312 -37.3125 116.328125 -43.332031 116.328125 -51.625 C 116.328125 -57.632812 114.160156 -62.398438 109.828125 -65.921875 C 105.503906 -69.441406 99.566406 -71.203125 92.015625 -71.203125 L 48.984375 -71.203125 Z M 16.515625 -161.796875 L 95.09375 -161.796875 C 111.3125 -161.796875 123.675781 -157.882812 132.1875 -150.0625 C 140.695312 -142.25 144.953125 -132.363281 144.953125 -120.40625 C 144.953125 -103.894531 138.347656 -92.851562 125.140625 -87.28125 C 141.796875 -80.894531 150.125 -67.796875 150.125 -47.984375 C 150.125 -41.523438 148.894531 -35.394531 146.4375 -29.59375 C 143.976562 -23.800781 140.160156 -18.425781 134.984375 -13.46875 C 129.816406 -8.519531 123.632812 -5.035156 116.4375 -3.015625 C 109.25 -1.003906 98.757812 0 84.96875 0 L 16.515625 0 Z M 16.515625 -161.796875 "/></g></g><g transform="translate(158.933422, 267.331621)"><g><path d="M 122.828125 0 L 92.671875 0 L 92.671875 -16.953125 L 92.234375 -16.953125 C 84.234375 -3.523438 72.050781 3.1875 55.6875 3.1875 C 43 3.1875 33.019531 -0.550781 25.75 -8.03125 C 18.488281 -15.519531 14.859375 -26.523438 14.859375 -41.046875 L 14.859375 -119.96875 L 46.453125 -119.96875 L 46.453125 -45.5625 C 46.453125 -37.9375 48.210938 -32.34375 51.734375 -28.78125 C 55.253906 -25.21875 60.316406 -23.4375 66.921875 -23.4375 C 74.035156 -23.4375 79.863281 -25.800781 84.40625 -30.53125 C 88.957031 -35.269531 91.234375 -42.003906 91.234375 -50.734375 L 91.234375 -119.96875 L 122.828125 -119.96875 Z M 122.828125 0 "/></g></g><g transform="translate(297.174668, 267.331621)"><g><path d="M 47 0 L 15.40625 0 L 15.40625 -161.796875 L 47 -161.796875 Z M 47 0 "/></g></g></g><g fill="#df1f1f" fill-opacity="1"><g transform="translate(359.58134, 267.331621)"><g><path d="M 47 0 L 15.40625 0 L 15.40625 -161.796875 L 47 -161.796875 Z M 47 0 "/></g></g></g><g fill="#df1f1f" fill-opacity="1"><g transform="translate(421.988006, 267.331621)"><g><path d="M 40.71875 -59.109375 C 40.71875 -48.535156 43.03125 -39.835938 47.65625 -33.015625 C 52.28125 -26.191406 58.59375 -22.78125 66.59375 -22.78125 C 75.46875 -22.78125 82.34375 -25.914062 87.21875 -32.1875 C 92.101562 -38.46875 94.546875 -46.816406 94.546875 -57.234375 C 94.546875 -69.992188 92.269531 -79.601562 87.71875 -86.0625 C 83.164062 -92.519531 76.414062 -95.75 67.46875 -95.75 C 59.03125 -95.75 52.460938 -92.519531 47.765625 -86.0625 C 43.066406 -79.601562 40.71875 -70.617188 40.71875 -59.109375 Z M 124.703125 0 L 93.875 0 L 93.875 -15.078125 L 93.4375 -15.078125 C 86.175781 -2.898438 74.582031 3.1875 58.65625 3.1875 C 42.8125 3.1875 30.445312 -2.71875 21.5625 -14.53125 C 12.6875 -26.34375 8.25 -41.929688 8.25 -61.296875 C 8.25 -80.304688 12.90625 -95.347656 22.21875 -106.421875 C 31.539062 -117.503906 43.46875 -123.046875 58 -123.046875 C 73.40625 -123.046875 85 -116.8125 92.78125 -104.34375 L 93.21875 -104.34375 L 93.21875 -161.796875 L 124.703125 -161.796875 Z M 124.703125 0 "/></g></g><g transform="translate(562.100351, 267.331621)"><g><path d="M 97.734375 -59.984375 C 97.734375 -71.429688 95.363281 -80.382812 90.625 -86.84375 C 85.894531 -93.300781 78.765625 -96.53125 69.234375 -96.53125 C 60.347656 -96.53125 53.375 -93.5 48.3125 -87.4375 C 43.25 -81.382812 40.71875 -72.234375 40.71875 -59.984375 C 40.71875 -47.953125 43.175781 -38.851562 48.09375 -32.6875 C 53.007812 -26.519531 60.054688 -23.4375 69.234375 -23.4375 C 78.691406 -23.4375 85.804688 -26.628906 90.578125 -33.015625 C 95.347656 -39.398438 97.734375 -48.390625 97.734375 -59.984375 Z M 130.203125 -59.984375 C 130.203125 -40.390625 124.566406 -24.960938 113.296875 -13.703125 C 102.035156 -2.441406 87.347656 3.1875 69.234375 3.1875 C 51.398438 3.1875 36.773438 -2.40625 25.359375 -13.59375 C 13.953125 -24.78125 8.25 -40.242188 8.25 -59.984375 C 8.25 -79.867188 13.953125 -95.347656 25.359375 -106.421875 C 36.773438 -117.503906 51.398438 -123.046875 69.234375 -123.046875 C 87.503906 -123.046875 102.234375 -117.378906 113.421875 -106.046875 C 124.609375 -94.710938 130.203125 -79.359375 130.203125 -59.984375 Z M 130.203125 -59.984375 "/></g></g></g><g fill="#df1f1f" fill-opacity="1"><g transform="translate(697.810102, 267.331621)"><g><path d="M 45.78125 -25.96875 L 108.625 -25.96875 L 108.625 0 L 4.953125 0 L 4.953125 -24.546875 L 66.484375 -94.65625 L 9.25 -94.65625 L 9.25 -119.96875 L 106.421875 -119.96875 L 106.421875 -94 Z M 45.78125 -25.96875 "/></g></g></g><g fill="#df1f1f" fill-opacity="1"><g transform="translate(808.094931, 267.331621)"><g><path d="M 90.140625 -71.875 C 89.484375 -79.5 86.988281 -85.625 82.65625 -90.25 C 78.320312 -94.875 72.707031 -97.1875 65.8125 -97.1875 C 50.84375 -97.1875 42.296875 -88.75 40.171875 -71.875 Z M 121.28125 -35.109375 C 117.613281 -22.710938 111.046875 -13.226562 101.578125 -6.65625 C 92.117188 -0.09375 81.113281 3.1875 68.5625 3.1875 C 48.832031 3.1875 33.753906 -2.257812 23.328125 -13.15625 C 12.910156 -24.050781 7.703125 -39.144531 7.703125 -58.4375 C 7.703125 -77.8125 12.597656 -93.421875 22.390625 -105.265625 C 32.191406 -117.117188 46.8125 -123.046875 66.25 -123.046875 C 83.71875 -123.046875 97.476562 -117.503906 107.53125 -106.421875 C 117.582031 -95.347656 122.609375 -78.878906 122.609375 -57.015625 L 122.609375 -51.40625 L 39.296875 -51.40625 C 40.023438 -41.644531 42.882812 -34.320312 47.875 -29.4375 C 52.863281 -24.5625 59.648438 -22.125 68.234375 -22.125 C 73.367188 -22.125 77.804688 -23.316406 81.546875 -25.703125 C 85.296875 -28.085938 87.71875 -31.222656 88.8125 -35.109375 Z M 121.28125 -35.109375 "/></g></g></g><g fill="#df1f1f" fill-opacity="1"><g transform="translate(937.310893, 267.331621)"><g><path d="M 15.40625 -119.96875 L 45.671875 -119.96875 L 45.671875 -99.171875 L 46.109375 -99.171875 C 49.785156 -107.015625 54.226562 -112.953125 59.4375 -116.984375 C 64.644531 -121.023438 71.175781 -123.046875 79.03125 -123.046875 C 81.082031 -123.046875 83.097656 -122.898438 85.078125 -122.609375 L 85.078125 -90.578125 C 83.609375 -90.867188 80.597656 -91.015625 76.046875 -91.015625 C 66.210938 -91.015625 58.910156 -88.648438 54.140625 -83.921875 C 49.378906 -79.191406 47 -72.019531 47 -62.40625 L 47 0 L 15.40625 0 Z M 15.40625 -119.96875 "/></g></g></g><g clip-path="url(#89b2491453)"><path fill="#003e7b" d="M 1037.859375 110.496094 L 1026.25 110.496094 L 1026.25 103.339844 L 1057.980469 103.339844 L 1057.980469 110.496094 L 1046.371094 110.496094 L 1046.371094 142.066406 L 1037.859375 142.066406 Z M 1037.859375 110.496094 " fill-opacity="1" fill-rule="nonzero"/></g><g clip-path="url(#eee8c5bd04)"><path fill="#003e7b" d="M 1062.429688 103.339844 L 1074.414062 103.339844 L 1083.472656 129.96875 L 1083.582031 129.96875 L 1092.148438 103.339844 L 1104.136719 103.339844 L 1104.136719 142.066406 L 1096.164062 142.066406 L 1096.164062 114.621094 L 1096.054688 114.621094 L 1086.5625 142.066406 L 1080.003906 142.066406 L 1070.511719 114.890625 L 1070.402344 114.890625 L 1070.402344 142.066406 L 1062.429688 142.066406 Z M 1062.429688 103.339844 " fill-opacity="1" fill-rule="nonzero"/></g></svg>